<svg aria-hidden="true" style="position:absolute;width:0;height:0;overflow:hidden"
    xmlns="http://www.w3.org/2000/svg"
    xmlns:xlink="http://www.w3.org/1999/xlink">
    <defs>
        <symbol id="linkedin">
            <svg fill="#337ecc" version="1.1" id="Layer_1" xmlns="http://www.w3.org/2000/svg"
                xmlns:xlink="http://www.w3.org/1999/xlink" viewBox="-143 145 512 512"
                xml:space="preserve" width="36px" height="36px" stroke="#337ecc"><g id="SVGRepo_bgCarrier" stroke-width="0"></g><g id="SVGRepo_tracerCarrier" stroke-linecap="round" stroke-linejoin="round"></g><g id="SVGRepo_iconCarrier"> <g> <path d="M113,145c-141.4,0-256,114.6-256,256s114.6,256,256,256s256-114.6,256-256S254.4,145,113,145z M272.8,560.7 c-20.8,20.8-44.9,37.1-71.8,48.4c-27.8,11.8-57.4,17.7-88,17.7c-30.5,0-60.1-6-88-17.7c-26.9-11.4-51.1-27.7-71.8-48.4 c-20.8-20.8-37.1-44.9-48.4-71.8C-107,461.1-113,431.5-113,401s6-60.1,17.7-88c11.4-26.9,27.7-51.1,48.4-71.8 c20.9-20.8,45-37.1,71.9-48.5C52.9,181,82.5,175,113,175s60.1,6,88,17.7c26.9,11.4,51.1,27.7,71.8,48.4 c20.8,20.8,37.1,44.9,48.4,71.8c11.8,27.8,17.7,57.4,17.7,88c0,30.5-6,60.1-17.7,88C309.8,515.8,293.5,540,272.8,560.7z"></path> <rect x="-8.5" y="348.4" width="49.9" height="159.7"></rect> <path d="M15.4,273c-18.4,0-30.5,11.9-30.5,27.7c0,15.5,11.7,27.7,29.8,27.7h0.4c18.8,0,30.5-12.3,30.4-27.7 C45.1,284.9,33.8,273,15.4,273z"></path> <path d="M177.7,346.9c-28.6,0-46.5,15.6-49.8,26.6v-25.1H71.8c0.7,13.3,0,159.7,0,159.7h56.1v-86.3c0-4.9-0.2-9.7,1.2-13.1 c3.8-9.6,12.1-19.6,27-19.6c19.5,0,28.3,14.8,28.3,36.4v82.6H241v-88.8C241,369.9,213.2,346.9,177.7,346.9z"></path> </g> </g></svg>
        </symbol>
        <symbol id="facebook">
            <svg fill="#4768aa" height="36px" width="36px" version="1.1" id="Layer_1"
                xmlns="http://www.w3.org/2000/svg" xmlns:xlink="http://www.w3.org/1999/xlink"
                viewBox="-143 145 512 512" xml:space="preserve"><g id="SVGRepo_bgCarrier" stroke-width="0"></g><g id="SVGRepo_tracerCarrier" stroke-linecap="round" stroke-linejoin="round" stroke="#CCCCCC" stroke-width="2.048"></g><g id="SVGRepo_iconCarrier"> <g> <path d="M113,145c-141.4,0-256,114.6-256,256s114.6,256,256,256s256-114.6,256-256S254.4,145,113,145z M272.8,560.7 c-20.8,20.8-44.9,37.1-71.8,48.4c-27.8,11.8-57.4,17.7-88,17.7c-30.5,0-60.1-6-88-17.7c-26.9-11.4-51.1-27.7-71.8-48.4 c-20.8-20.8-37.1-44.9-48.4-71.8C-107,461.1-113,431.5-113,401s6-60.1,17.7-88c11.4-26.9,27.7-51.1,48.4-71.8 c20.9-20.8,45-37.1,71.9-48.5C52.9,181,82.5,175,113,175s60.1,6,88,17.7c26.9,11.4,51.1,27.7,71.8,48.4 c20.8,20.8,37.1,44.9,48.4,71.8c11.8,27.8,17.7,57.4,17.7,88c0,30.5-6,60.1-17.7,88C309.8,515.8,293.5,540,272.8,560.7z"></path> <path d="M146.8,313.7c10.3,0,21.3,3.2,21.3,3.2l6.6-39.2c0,0-14-4.8-47.4-4.8c-20.5,0-32.4,7.8-41.1,19.3 c-8.2,10.9-8.5,28.4-8.5,39.7v25.7H51.2v38.3h26.5v133h49.6v-133h39.3l2.9-38.3h-42.2v-29.9C127.3,317.4,136.5,313.7,146.8,313.7z"></path> </g> </g></svg>
        </symbol>
        <symbol id="google">
            <!-- <svg fill="#ee4040" height="36px" width="36px" version="1.1"
                xmlns="http://www.w3.org/2000/svg" xmlns:xlink="http://www.w3.org/1999/xlink"
                viewBox="0 0 314.652 314.652" xml:space="preserve"><g id="SVGRepo_bgCarrier"
            stroke-width="4"></g><g id="SVGRepo_tracerCarrier" stroke-linecap="round"
            stroke-linejoin="round"></g><g id="SVGRepo_iconCarrier"> <g> <path
            d="M157.326,0C70.576,0,0,70.576,0,157.326s70.576,157.326,157.326,157.326s157.326-70.576,157.326-157.326
            S244.076,0,157.326,0z
            M157.326,296.652C80.501,296.652,18,234.15,18,157.326S80.501,18,157.326,18s139.326,62.502,139.326,139.326
            S234.151,296.652,157.326,296.652z"></path> <path
            d="M225.66,148.326h-61.584c-4.971,0-9,4.029-9,9s4.029,9,9,9h51.903c-4.35,28.461-28.995,50.333-58.652,50.333
            c-32.717,0-59.333-26.616-59.333-59.333s26.617-59.333,59.333-59.333c14.969,0,29.263,5.59,40.249,15.738
            c3.653,3.374,9.346,3.148,12.718-0.503c3.373-3.651,3.147-9.346-0.503-12.718c-14.322-13.231-32.954-20.518-52.464-20.518
            c-42.642,0-77.333,34.691-77.333,77.333s34.691,77.333,77.333,77.333s77.333-34.691,77.333-77.333
            C234.66,152.355,230.63,148.326,225.66,148.326z"></path> </g> </g></svg> -->

            <svg fill="#E8030F" height="40px" width="40px" version="1.1" id="Capa_1" xmlns="http://www.w3.org/2000/svg" xmlns:xlink="http://www.w3.org/1999/xlink" viewBox="-31.47 -31.47 377.59 377.59" xml:space="preserve" stroke="#E8030F" stroke-width="7.8663"><g id="SVGRepo_bgCarrier" stroke-width="0"></g><g id="SVGRepo_tracerCarrier" stroke-linecap="round" stroke-linejoin="round" stroke="#CCCCCC" stroke-width="3.1465199999999998"></g><g id="SVGRepo_iconCarrier"> <g> <path d="M157.326,0C70.576,0,0,70.576,0,157.326s70.576,157.326,157.326,157.326s157.326-70.576,157.326-157.326 S244.076,0,157.326,0z M157.326,296.652C80.501,296.652,18,234.15,18,157.326S80.501,18,157.326,18s139.326,62.502,139.326,139.326 S234.151,296.652,157.326,296.652z"></path> <path d="M225.66,148.326h-61.584c-4.971,0-9,4.029-9,9s4.029,9,9,9h51.903c-4.35,28.461-28.995,50.333-58.652,50.333 c-32.717,0-59.333-26.616-59.333-59.333s26.617-59.333,59.333-59.333c14.969,0,29.263,5.59,40.249,15.738 c3.653,3.374,9.346,3.148,12.718-0.503c3.373-3.651,3.147-9.346-0.503-12.718c-14.322-13.231-32.954-20.518-52.464-20.518 c-42.642,0-77.333,34.691-77.333,77.333s34.691,77.333,77.333,77.333s77.333-34.691,77.333-77.333 C234.66,152.355,230.63,148.326,225.66,148.326z"></path> </g> </g></svg>
        </symbol>
        <symbol id="check">
            <svg xmlns="http://www.w3.org/2000/svg" width="20" height="20" viewBox="0 0 24 24"
                fill="none" stroke="currentColor" stroke-width="2" stroke-linecap="round"
                stroke-linejoin="round" class="lucide lucide-check">
                <path d="M20 6 9 17l-5-5" />
            </svg>
        </symbol>
    </defs>
</svg>